# Blender v2.91.2 OBJ File: 'SNAKES.blend'
# www.blender.org
mtllib snake_head.mtl
o Cube.050_Cube.064
v -0.543314 0.353092 -0.787997
v -0.739339 0.747721 0.965784
v -0.474111 0.804279 0.996559
v -0.354608 0.429498 -1.272121
v -0.756774 0.560827 -0.199556
v -0.289799 0.506901 -0.655536
v -0.418296 0.822300 0.268336
v -0.770814 0.674178 0.249072
v -0.698437 0.000000 0.896374
v -0.437064 0.005198 -0.685922
v -0.265994 0.058348 -1.090624
v -0.442862 0.000000 0.948989
v -0.665120 -0.000144 -0.092978
v -0.687321 0.000000 0.295880
v -0.709058 0.434544 0.914498
v -0.504349 0.212504 -0.779039
v -0.328383 0.305935 -1.249932
v -0.449289 0.460230 0.959661
v -0.674665 0.393995 -0.134963
v -0.700456 0.391763 0.274310
v -0.655005 0.792119 0.984435
v -0.451076 0.414200 -0.995773
v -0.579262 0.573397 -0.421223
v -0.593341 0.770809 0.262294
v -0.366493 0.015932 -0.871824
v -0.618930 0.016119 0.925945
v -0.428118 0.281130 -1.005163
v -0.627454 0.463506 0.940343
v 0.543314 0.353092 -0.787997
v 0.739339 0.747721 0.965784
v 0.000000 0.939712 0.990426
v 0.000000 0.585698 -1.284260
v 0.474111 0.804279 0.996559
v 0.354608 0.429498 -1.272121
v 0.756774 0.560827 -0.199556
v 0.000000 0.733602 -0.434898
v 0.289799 0.506901 -0.655536
v 0.000000 0.973145 0.602979
v 0.418296 0.822300 0.268336
v 0.770814 0.674178 0.249072
v 0.698437 0.000000 0.896374
v 0.437064 0.005198 -0.685922
v 0.000000 0.057088 -1.139884
v 0.000000 0.000000 1.000000
v 0.265994 0.058348 -1.090624
v 0.442862 0.000000 0.948989
v 0.665120 -0.000144 -0.092978
v 0.687321 0.000000 0.295880
v 0.709058 0.434544 0.914498
v 0.504349 0.212504 -0.779039
v 0.000000 0.368044 -1.323836
v 0.000000 0.484690 0.997266
v 0.328383 0.305935 -1.249932
v 0.449289 0.460230 0.959661
v 0.674665 0.393995 -0.134963
v 0.700456 0.391763 0.274310
v 0.655005 0.792119 0.984435
v 0.451076 0.414200 -0.995773
v 0.579262 0.573397 -0.421223
v 0.593341 0.770809 0.262294
v 0.366493 0.015932 -0.871824
v 0.618930 0.016119 0.925945
v 0.428118 0.281130 -1.005163
v 0.627454 0.463506 0.940343
vt 0.843750 0.663934
vt 0.875000 0.663934
vt 0.875000 0.750000
vt 0.843750 0.750000
vt 0.562500 0.968750
vt 0.625000 0.968750
vt 0.625000 1.000000
vt 0.562500 1.000000
vt 0.562500 0.172131
vt 0.625000 0.172131
vt 0.625000 0.250000
vt 0.562500 0.250000
vt 0.500000 0.281250
vt 0.500000 0.468750
vt 0.500000 0.000000
vt 0.500000 0.086066
vt 0.500000 0.172131
vt 0.500000 0.250000
vt 0.562500 0.312500
vt 0.625000 0.312500
vt 0.625000 0.375000
vt 0.562500 0.375000
vt 0.562500 0.281250
vt 0.625000 0.281250
vt 0.562500 0.875000
vt 0.625000 0.875000
vt 0.625000 0.937500
vt 0.562500 0.937500
vt 0.750000 0.663934
vt 0.812500 0.663934
vt 0.812500 0.750000
vt 0.750000 0.750000
vt 0.750000 0.500000
vt 0.812500 0.500000
vt 0.812500 0.577869
vt 0.750000 0.577869
vt 0.562500 0.086066
vt 0.625000 0.086066
vt 0.843750 0.500000
vt 0.875000 0.500000
vt 0.875000 0.577869
vt 0.843750 0.577869
vt 0.562500 0.000000
vt 0.625000 0.000000
vt 0.500000 0.875000
vt 0.500000 0.937500
vt 0.500000 0.312500
vt 0.500000 0.375000
vt 0.500000 0.968750
vt 0.500000 1.000000
vt 0.625000 0.437500
vt 0.843750 0.663934
vt 0.843750 0.750000
vt 0.875000 0.750000
vt 0.875000 0.663934
vt 0.562500 0.968750
vt 0.562500 1.000000
vt 0.625000 1.000000
vt 0.625000 0.968750
vt 0.562500 0.172131
vt 0.562500 0.250000
vt 0.625000 0.250000
vt 0.625000 0.172131
vt 0.500000 0.281250
vt 0.500000 0.250000
vt 0.500000 0.172131
vt 0.500000 0.086066
vt 0.500000 0.000000
vt 0.500000 0.468750
vt 0.562500 0.312500
vt 0.625000 0.312500
vt 0.562500 0.281250
vt 0.625000 0.281250
vt 0.562500 0.937500
vt 0.625000 0.937500
vt 0.812500 0.750000
vt 0.812500 0.663934
vt 0.812500 0.577869
vt 0.812500 0.500000
vt 0.562500 0.086066
vt 0.625000 0.086066
vt 0.843750 0.500000
vt 0.843750 0.577869
vt 0.875000 0.577869
vt 0.875000 0.500000
vt 0.562500 0.000000
vt 0.625000 0.000000
vt 0.500000 0.937500
vt 0.500000 0.312500
vt 0.500000 0.968750
vt 0.500000 1.000000
vn -0.4667 0.8818 -0.0679
vn -0.1886 -0.1610 0.9688
vn -0.9054 -0.3943 -0.1574
vn 0.1166 -0.9931 0.0156
vn -0.1374 0.0399 -0.9897
vn -0.9133 -0.1929 -0.3587
vn -0.0274 -0.0384 0.9989
vn -0.3147 0.9488 0.0280
vn -0.4804 0.8698 -0.1124
vn -0.9468 -0.3218 -0.0023
vn -0.7599 0.5217 -0.3878
vn -0.9853 -0.1678 0.0310
vn -0.2727 0.9209 -0.2784
vn -0.4159 0.8743 -0.2503
vn -0.9995 -0.0288 -0.0149
vn -0.9976 -0.0336 -0.0601
vn -0.0986 -0.0090 0.9951
vn -0.8051 -0.4287 -0.4099
vn -0.1198 -0.5295 -0.8398
vn -0.9431 -0.1829 -0.2777
vn -0.3145 -0.0418 0.9483
vn -0.1203 -0.0294 0.9923
vn -0.8328 -0.4070 -0.3751
vn -0.1226 0.9423 -0.3115
vn -0.1359 0.9703 -0.2000
vn -0.8914 -0.2011 -0.4062
vn 0.6790 -0.7340 -0.0162
vn -0.0835 -0.1255 0.9886
vn -0.1752 0.9844 -0.0164
vn 0.4667 0.8818 -0.0679
vn 0.1886 -0.1610 0.9688
vn 0.9054 -0.3943 -0.1574
vn -0.1166 -0.9931 0.0156
vn 0.1374 0.0399 -0.9897
vn 0.9133 -0.1929 -0.3587
vn 0.0274 -0.0384 0.9989
vn 0.3147 0.9488 0.0280
vn 0.4804 0.8698 -0.1124
vn 0.9468 -0.3218 -0.0023
vn 0.7599 0.5217 -0.3878
vn 0.9853 -0.1678 0.0310
vn 0.2727 0.9209 -0.2784
vn 0.4159 0.8743 -0.2503
vn 0.9995 -0.0288 -0.0149
vn 0.9976 -0.0336 -0.0601
vn 0.0986 -0.0090 0.9951
vn 0.8051 -0.4287 -0.4099
vn 0.1198 -0.5295 -0.8398
vn -1.0000 0.0000 0.0000
vn 0.9431 -0.1829 -0.2777
vn 0.3145 -0.0418 0.9483
vn 0.1203 -0.0294 0.9923
vn 0.8328 -0.4070 -0.3751
vn 0.1226 0.9423 -0.3115
vn 0.1359 0.9703 -0.2000
vn 0.8914 -0.2011 -0.4062
vn -0.6790 -0.7340 -0.0162
vn 0.0835 -0.1255 0.9886
vn 0.1752 0.9844 -0.0164
usemtl snakewhite.001
s off
f 24/1/1 8/2/1 2/3/1 21/4/1
f 28/5/2 21/6/2 2/7/2 15/8/2
f 19/9/3 5/10/3 1/11/3 16/12/3
f 25/13/4 26/14/4 9/15/4 14/16/4 13/17/4 10/18/4
f 17/19/5 4/20/5 32/21/5 51/22/5
f 27/23/6 22/24/6 4/20/6 17/19/6
f 52/25/7 31/26/7 3/27/7 18/28/7
f 38/29/8 7/30/8 3/31/8 31/32/8
f 32/33/9 4/34/9 6/35/9 36/36/9
f 20/37/10 8/38/10 5/10/10 19/9/10
f 22/39/11 1/40/11 5/41/11 23/42/11
f 15/43/12 2/44/12 8/38/12 20/37/12
f 36/36/13 6/35/13 7/30/13 38/29/13
f 23/42/14 5/41/14 8/2/14 24/1/14
f 9/15/15 15/43/15 20/37/15 14/16/15
f 14/16/16 20/37/16 19/9/16 13/17/16
f 44/45/17 52/25/17 18/28/17 12/46/17
f 25/13/18 27/23/18 17/19/18 11/47/18
f 11/47/19 17/19/19 51/22/19 43/48/19
f 13/17/20 19/9/20 16/12/20 10/18/20
f 26/49/21 28/5/21 15/8/21 9/50/21
f 12/46/22 18/28/22 28/5/22 26/49/22
f 10/18/23 16/12/23 27/23/23 25/13/23
f 6/35/24 23/42/24 24/1/24 7/30/24
f 4/34/25 22/39/25 23/42/25 6/35/25
f 16/12/26 1/11/26 22/24/26 27/23/26
f 51/51/27 52/25/27 44/45/27 12/46/27 26/14/27 25/13/27 11/47/27 43/48/27
f 18/28/28 3/27/28 21/6/28 28/5/28
f 7/30/29 24/1/29 21/4/29 3/31/29
f 60/52/30 57/53/30 30/54/30 40/55/30
f 64/56/31 49/57/31 30/58/31 57/59/31
f 55/60/32 50/61/32 29/62/32 35/63/32
f 61/64/33 42/65/33 47/66/33 48/67/33 41/68/33 62/69/33
f 53/70/34 51/22/34 32/21/34 34/71/34
f 63/72/35 53/70/35 34/71/35 58/73/35
f 52/25/36 54/74/36 33/75/36 31/26/36
f 38/29/37 31/32/37 33/76/37 39/77/37
f 32/33/38 36/36/38 37/78/38 34/79/38
f 56/80/39 55/60/39 35/63/39 40/81/39
f 58/82/40 59/83/40 35/84/40 29/85/40
f 49/86/41 56/80/41 40/81/41 30/87/41
f 36/36/42 38/29/42 39/77/42 37/78/42
f 59/83/43 60/52/43 40/55/43 35/84/43
f 41/68/44 48/67/44 56/80/44 49/86/44
f 48/67/45 47/66/45 55/60/45 56/80/45
f 44/45/46 46/88/46 54/74/46 52/25/46
f 61/64/47 45/89/47 53/70/47 63/72/47
f 45/89/48 43/48/48 51/22/48 53/70/48
f 32/33/49 51/51/49 52/25/49 31/26/49 38/29/49 36/36/49
f 47/66/50 42/65/50 50/61/50 55/60/50
f 62/90/51 41/91/51 49/57/51 64/56/51
f 46/88/52 62/90/52 64/56/52 54/74/52
f 42/65/53 61/64/53 63/72/53 50/61/53
f 37/78/54 39/77/54 60/52/54 59/83/54
f 34/79/55 37/78/55 59/83/55 58/82/55
f 50/61/56 63/72/56 58/73/56 29/62/56
f 51/51/57 43/48/57 45/89/57 61/64/57 62/69/57 46/88/57 44/45/57 52/25/57
f 54/74/58 64/56/58 57/59/58 33/75/58
f 39/77/59 33/76/59 57/53/59 60/52/59
o Icosphere.010_Icosphere.012
v -0.370740 0.268006 -0.259701
v -0.182292 0.411965 -0.122787
v -0.442719 0.411965 -0.038168
v -0.603673 0.411966 -0.259701
v -0.442719 0.411965 -0.481234
v -0.182292 0.411965 -0.396614
v -0.298761 0.644902 -0.038168
v -0.559187 0.644902 -0.122787
v -0.559187 0.644902 -0.396614
v -0.298761 0.644902 -0.481234
v -0.137806 0.644901 -0.259701
v -0.370740 0.788861 -0.259701
v -0.413048 0.306900 -0.129488
v -0.259974 0.306900 -0.179226
v -0.302281 0.391517 -0.049012
v -0.149207 0.391517 -0.259701
v -0.259974 0.306900 -0.340176
v -0.507654 0.306900 -0.259701
v -0.549963 0.391517 -0.129488
v -0.413048 0.306900 -0.389914
v -0.549963 0.391517 -0.389914
v -0.302281 0.391517 -0.470390
v -0.123058 0.528434 -0.179225
v -0.123058 0.528434 -0.340176
v -0.370740 0.528434 0.000727
v -0.217664 0.528434 -0.049011
v -0.618421 0.528434 -0.179225
v -0.523815 0.528434 -0.049011
v -0.523815 0.528434 -0.470391
v -0.618421 0.528434 -0.340176
v -0.217664 0.528434 -0.470391
v -0.370740 0.528434 -0.520129
v -0.191516 0.665350 -0.129488
v -0.439198 0.665350 -0.049012
v -0.592272 0.665350 -0.259701
v -0.439198 0.665350 -0.470390
v -0.191516 0.665350 -0.389914
v -0.328432 0.749968 -0.129488
v -0.233825 0.749967 -0.259701
v -0.481505 0.749968 -0.179226
v -0.481505 0.749968 -0.340176
v -0.328432 0.749968 -0.389914
v 0.370740 0.268006 -0.259701
v 0.182292 0.411965 -0.122787
v 0.442719 0.411965 -0.038168
v 0.603673 0.411966 -0.259701
v 0.442719 0.411965 -0.481234
v 0.182292 0.411965 -0.396614
v 0.298761 0.644902 -0.038168
v 0.559187 0.644902 -0.122787
v 0.559187 0.644902 -0.396614
v 0.298761 0.644902 -0.481234
v 0.137806 0.644901 -0.259701
v 0.370740 0.788861 -0.259701
v 0.413048 0.306900 -0.129488
v 0.259974 0.306900 -0.179226
v 0.302281 0.391517 -0.049012
v 0.149207 0.391517 -0.259701
v 0.259974 0.306900 -0.340176
v 0.507654 0.306900 -0.259701
v 0.549963 0.391517 -0.129488
v 0.413048 0.306900 -0.389914
v 0.549963 0.391517 -0.389914
v 0.302281 0.391517 -0.470390
v 0.123058 0.528434 -0.179225
v 0.123058 0.528434 -0.340176
v 0.370740 0.528434 0.000727
v 0.217664 0.528434 -0.049011
v 0.618421 0.528434 -0.179225
v 0.523815 0.528434 -0.049011
v 0.523815 0.528434 -0.470391
v 0.618421 0.528434 -0.340176
v 0.217664 0.528434 -0.470391
v 0.370740 0.528434 -0.520129
v 0.191516 0.665350 -0.129488
v 0.439198 0.665350 -0.049012
v 0.592272 0.665350 -0.259701
v 0.439198 0.665350 -0.470390
v 0.191516 0.665350 -0.389914
v 0.328432 0.749968 -0.129488
v 0.233825 0.749967 -0.259701
v 0.481505 0.749968 -0.179226
v 0.481505 0.749968 -0.340176
v 0.328432 0.749968 -0.389914
vt 0.818181 0.000000
vt 0.772726 0.078731
vt 0.863635 0.078731
vt 0.727272 0.157461
vt 0.681818 0.078731
vt 0.636363 0.157461
vt 0.090909 0.000000
vt 0.045454 0.078731
vt 0.136363 0.078731
vt 0.272727 0.000000
vt 0.227273 0.078731
vt 0.318182 0.078731
vt 0.454545 0.000000
vt 0.409090 0.078731
vt 0.500000 0.078731
vt 0.681818 0.236191
vt 0.909090 0.157461
vt 0.818181 0.157461
vt 0.863635 0.236191
vt 0.181818 0.157461
vt 0.090909 0.157461
vt 0.136363 0.236191
vt 0.363636 0.157461
vt 0.272727 0.157461
vt 0.318182 0.236191
vt 0.545454 0.157461
vt 0.454545 0.157461
vt 0.500000 0.236191
vt 0.772726 0.236191
vt 0.954545 0.236191
vt 0.227273 0.236191
vt 0.409090 0.236191
vt 0.590909 0.236191
vt 0.818181 0.314921
vt 0.727272 0.314921
vt 0.772726 0.393651
vt 1.000000 0.314921
vt 0.909091 0.314921
vt 0.954545 0.393651
vt 0.272727 0.314921
vt 0.181818 0.314921
vt 0.227273 0.393651
vt 0.454545 0.314921
vt 0.363636 0.314921
vt 0.409090 0.393651
vt 0.636363 0.314921
vt 0.545454 0.314921
vt 0.590909 0.393651
vt 0.500000 0.393651
vt 0.545454 0.472382
vt 0.318182 0.393651
vt 0.363636 0.472382
vt 0.136363 0.393651
vt 0.181818 0.472382
vt 0.090909 0.314921
vt 0.863635 0.393651
vt 0.909090 0.472382
vt 0.681818 0.393651
vt 0.727272 0.472382
vt 0.045454 0.236191
vt 0.000000 0.157461
vt 0.590909 0.078731
vt 0.636363 0.000000
vt 0.818181 0.000000
vt 0.863635 0.078731
vt 0.772726 0.078731
vt 0.727272 0.157461
vt 0.636363 0.157461
vt 0.681818 0.078731
vt 0.090909 0.000000
vt 0.136363 0.078731
vt 0.045454 0.078731
vt 0.272727 0.000000
vt 0.318182 0.078731
vt 0.227273 0.078731
vt 0.454545 0.000000
vt 0.500000 0.078731
vt 0.409090 0.078731
vt 0.681818 0.236191
vt 0.909090 0.157461
vt 0.863635 0.236191
vt 0.818181 0.157461
vt 0.181818 0.157461
vt 0.136363 0.236191
vt 0.090909 0.157461
vt 0.363636 0.157461
vt 0.318182 0.236191
vt 0.272727 0.157461
vt 0.545454 0.157461
vt 0.500000 0.236191
vt 0.454545 0.157461
vt 0.772726 0.236191
vt 0.954545 0.236191
vt 0.227273 0.236191
vt 0.409090 0.236191
vt 0.590909 0.236191
vt 0.818181 0.314921
vt 0.772726 0.393651
vt 0.727272 0.314921
vt 1.000000 0.314921
vt 0.954545 0.393651
vt 0.909091 0.314921
vt 0.272727 0.314921
vt 0.227273 0.393651
vt 0.181818 0.314921
vt 0.454545 0.314921
vt 0.409090 0.393651
vt 0.363636 0.314921
vt 0.636363 0.314921
vt 0.590909 0.393651
vt 0.545454 0.314921
vt 0.545454 0.472382
vt 0.500000 0.393651
vt 0.363636 0.472382
vt 0.318182 0.393651
vt 0.181818 0.472382
vt 0.136363 0.393651
vt 0.090909 0.314921
vt 0.909090 0.472382
vt 0.863635 0.393651
vt 0.727272 0.472382
vt 0.681818 0.393651
vt 0.045454 0.236191
vt 0.000000 0.157461
vt 0.590909 0.078731
vt 0.636363 0.000000
vn 0.0000 -1.0000 0.0000
vn 0.4253 -0.8506 0.3090
vn -0.1625 -0.8506 0.5000
vn 0.7236 -0.4472 0.5257
vn 0.8506 -0.5257 0.0000
vn -0.5257 -0.8506 0.0000
vn -0.1625 -0.8506 -0.5000
vn 0.4253 -0.8506 -0.3090
vn 0.9510 0.0000 0.3090
vn -0.2764 -0.4472 0.8506
vn 0.2629 -0.5257 0.8090
vn 0.0000 0.0000 1.0000
vn -0.8944 -0.4472 0.0000
vn -0.6882 -0.5257 0.5000
vn -0.9510 0.0000 0.3090
vn -0.2764 -0.4472 -0.8506
vn -0.6882 -0.5257 -0.5000
vn -0.5878 0.0000 -0.8090
vn 0.7236 -0.4472 -0.5257
vn 0.2629 -0.5257 -0.8090
vn 0.5878 0.0000 -0.8090
vn 0.5878 0.0000 0.8090
vn -0.5878 0.0000 0.8090
vn -0.9510 0.0000 -0.3090
vn 0.0000 0.0000 -1.0000
vn 0.9510 0.0000 -0.3090
vn 0.2764 0.4472 0.8506
vn 0.6882 0.5257 0.5000
vn 0.1625 0.8506 0.5000
vn -0.7236 0.4472 0.5257
vn -0.2629 0.5257 0.8090
vn -0.4253 0.8506 0.3090
vn -0.7236 0.4472 -0.5257
vn -0.8506 0.5257 0.0000
vn -0.4253 0.8506 -0.3090
vn 0.2764 0.4472 -0.8506
vn -0.2629 0.5257 -0.8090
vn 0.1625 0.8506 -0.5000
vn 0.8944 0.4472 0.0000
vn 0.6882 0.5257 -0.5000
vn 0.5257 0.8506 0.0000
vn 0.0000 1.0000 0.0000
vn 0.1625 -0.8506 0.5000
vn -0.4253 -0.8506 0.3090
vn -0.7236 -0.4472 0.5257
vn -0.8506 -0.5257 0.0000
vn 0.5257 -0.8506 0.0000
vn 0.1625 -0.8506 -0.5000
vn -0.4253 -0.8506 -0.3090
vn 0.2764 -0.4472 0.8506
vn -0.2629 -0.5257 0.8090
vn 0.8944 -0.4472 0.0000
vn 0.6882 -0.5257 0.5000
vn 0.2764 -0.4472 -0.8506
vn 0.6882 -0.5257 -0.5000
vn -0.7236 -0.4472 -0.5257
vn -0.2629 -0.5257 -0.8090
vn -0.2764 0.4472 0.8506
vn -0.1625 0.8506 0.5000
vn -0.6882 0.5257 0.5000
vn 0.7236 0.4472 0.5257
vn 0.4253 0.8506 0.3090
vn 0.2629 0.5257 0.8090
vn 0.7236 0.4472 -0.5257
vn 0.4253 0.8506 -0.3090
vn 0.8506 0.5257 0.0000
vn -0.2764 0.4472 -0.8506
vn -0.1625 0.8506 -0.5000
vn 0.2629 0.5257 -0.8090
vn -0.8944 0.4472 0.0000
vn -0.5257 0.8506 0.0000
vn -0.6882 0.5257 -0.5000
usemtl eye.002
s 1
f 65/92/60 78/93/61 77/94/62
f 66/95/63 78/96/61 80/97/64
f 65/98/60 77/99/62 82/100/65
f 65/101/60 82/102/65 84/103/66
f 65/104/60 84/105/66 81/106/67
f 66/95/63 80/97/64 87/107/68
f 67/108/69 79/109/70 89/110/71
f 68/111/72 83/112/73 91/113/74
f 69/114/75 85/115/76 93/116/77
f 70/117/78 86/118/79 95/119/80
f 66/95/63 87/107/68 90/120/81
f 67/108/69 89/110/71 92/121/82
f 68/111/72 91/113/74 94/122/83
f 69/114/75 93/116/77 96/123/84
f 70/117/78 95/119/80 88/124/85
f 71/125/86 97/126/87 102/127/88
f 72/128/89 98/129/90 104/130/91
f 73/131/92 99/132/93 105/133/94
f 74/134/95 100/135/96 106/136/97
f 75/137/98 101/138/99 103/139/100
f 103/139/100 106/140/97 76/141/101
f 103/139/100 101/138/99 106/140/97
f 101/138/99 74/134/95 106/140/97
f 106/136/97 105/142/94 76/143/101
f 106/136/97 100/135/96 105/142/94
f 100/135/96 73/131/92 105/142/94
f 105/133/94 104/144/91 76/145/101
f 105/133/94 99/132/93 104/144/91
f 99/132/93 72/146/89 104/144/91
f 104/130/91 102/147/88 76/148/101
f 104/130/91 98/129/90 102/147/88
f 98/129/90 71/125/86 102/147/88
f 102/127/88 103/149/100 76/150/101
f 102/127/88 97/126/87 103/149/100
f 97/126/87 75/137/98 103/149/100
f 88/124/85 101/138/99 75/137/98
f 88/124/85 95/119/80 101/138/99
f 95/119/80 74/134/95 101/138/99
f 96/123/84 100/135/96 74/134/95
f 96/123/84 93/116/77 100/135/96
f 93/116/77 73/131/92 100/135/96
f 94/122/83 99/132/93 73/131/92
f 94/122/83 91/113/74 99/132/93
f 91/113/74 72/146/89 99/132/93
f 92/121/82 98/129/90 72/128/89
f 92/121/82 89/110/71 98/129/90
f 89/110/71 71/125/86 98/129/90
f 90/120/81 97/126/87 71/125/86
f 90/120/81 87/107/68 97/126/87
f 87/107/68 75/137/98 97/126/87
f 95/119/80 96/123/84 74/134/95
f 95/119/80 86/118/79 96/123/84
f 86/118/79 69/114/75 96/123/84
f 93/116/77 94/122/83 73/131/92
f 93/116/77 85/115/76 94/122/83
f 85/115/76 68/111/72 94/122/83
f 91/113/74 92/151/82 72/146/89
f 91/113/74 83/112/73 92/151/82
f 83/112/73 67/152/69 92/151/82
f 89/110/71 90/120/81 71/125/86
f 89/110/71 79/109/70 90/120/81
f 79/109/70 66/95/63 90/120/81
f 87/107/68 88/124/85 75/137/98
f 87/107/68 80/97/64 88/124/85
f 80/97/64 70/117/78 88/124/85
f 81/106/67 86/118/79 70/117/78
f 81/106/67 84/105/66 86/118/79
f 84/105/66 69/114/75 86/118/79
f 84/103/66 85/115/76 69/114/75
f 84/103/66 82/102/65 85/115/76
f 82/102/65 68/111/72 85/115/76
f 82/100/65 83/112/73 68/111/72
f 82/100/65 77/99/62 83/112/73
f 77/99/62 67/152/69 83/112/73
f 80/97/64 81/153/67 70/117/78
f 80/97/64 78/96/61 81/153/67
f 78/96/61 65/154/60 81/153/67
f 77/94/62 79/109/70 67/108/69
f 77/94/62 78/93/61 79/109/70
f 78/93/61 66/95/63 79/109/70
f 107/155/60 119/156/102 120/157/103
f 108/158/104 122/159/105 120/160/103
f 107/161/60 124/162/106 119/163/102
f 107/164/60 126/165/107 124/166/106
f 107/167/60 123/168/108 126/169/107
f 108/158/104 129/170/74 122/159/105
f 109/171/109 131/172/71 121/173/110
f 110/174/111 133/175/68 125/176/112
f 111/177/113 135/178/80 127/179/114
f 112/180/115 137/181/77 128/182/116
f 108/158/104 132/183/82 129/170/74
f 109/171/109 134/184/81 131/172/71
f 110/174/111 136/185/85 133/175/68
f 111/177/113 138/186/84 135/178/80
f 112/180/115 130/187/83 137/181/77
f 113/188/117 144/189/118 139/190/119
f 114/191/120 146/192/121 140/193/122
f 115/194/123 147/195/124 141/196/125
f 116/197/126 148/198/127 142/199/128
f 117/200/129 145/201/130 143/202/131
f 145/201/130 118/203/101 148/204/127
f 145/201/130 148/204/127 143/202/131
f 143/202/131 148/204/127 116/197/126
f 148/198/127 118/205/101 147/206/124
f 148/198/127 147/206/124 142/199/128
f 142/199/128 147/206/124 115/194/123
f 147/195/124 118/207/101 146/208/121
f 147/195/124 146/208/121 141/196/125
f 141/196/125 146/208/121 114/209/120
f 146/192/121 118/210/101 144/211/118
f 146/192/121 144/211/118 140/193/122
f 140/193/122 144/211/118 113/188/117
f 144/189/118 118/212/101 145/213/130
f 144/189/118 145/213/130 139/190/119
f 139/190/119 145/213/130 117/200/129
f 130/187/83 117/200/129 143/202/131
f 130/187/83 143/202/131 137/181/77
f 137/181/77 143/202/131 116/197/126
f 138/186/84 116/197/126 142/199/128
f 138/186/84 142/199/128 135/178/80
f 135/178/80 142/199/128 115/194/123
f 136/185/85 115/194/123 141/196/125
f 136/185/85 141/196/125 133/175/68
f 133/175/68 141/196/125 114/209/120
f 134/184/81 114/191/120 140/193/122
f 134/184/81 140/193/122 131/172/71
f 131/172/71 140/193/122 113/188/117
f 132/183/82 113/188/117 139/190/119
f 132/183/82 139/190/119 129/170/74
f 129/170/74 139/190/119 117/200/129
f 137/181/77 116/197/126 138/186/84
f 137/181/77 138/186/84 128/182/116
f 128/182/116 138/186/84 111/177/113
f 135/178/80 115/194/123 136/185/85
f 135/178/80 136/185/85 127/179/114
f 127/179/114 136/185/85 110/174/111
f 133/175/68 114/209/120 134/214/81
f 133/175/68 134/214/81 125/176/112
f 125/176/112 134/214/81 109/215/109
f 131/172/71 113/188/117 132/183/82
f 131/172/71 132/183/82 121/173/110
f 121/173/110 132/183/82 108/158/104
f 129/170/74 117/200/129 130/187/83
f 129/170/74 130/187/83 122/159/105
f 122/159/105 130/187/83 112/180/115
f 123/168/108 112/180/115 128/182/116
f 123/168/108 128/182/116 126/169/107
f 126/169/107 128/182/116 111/177/113
f 126/165/107 111/177/113 127/179/114
f 126/165/107 127/179/114 124/166/106
f 124/166/106 127/179/114 110/174/111
f 124/162/106 110/174/111 125/176/112
f 124/162/106 125/176/112 119/163/102
f 119/163/102 125/176/112 109/215/109
f 122/159/105 112/180/115 123/216/108
f 122/159/105 123/216/108 120/160/103
f 120/160/103 123/216/108 107/217/60
f 119/156/102 109/171/109 121/173/110
f 119/156/102 121/173/110 120/157/103
f 120/157/103 121/173/110 108/158/104
