# Blender v2.91.2 OBJ File: 'SNAKES.blend'
# www.blender.org
mtllib snake_segment.mtl
o Cube.051_Cube.065
v 0.647766 0.009200 0.942164
v 0.647766 0.009200 -0.942164
v 0.656966 0.583366 0.942164
v 0.656966 0.583366 -0.942164
v 0.452682 0.767365 -0.942164
v 0.452682 0.767365 0.942164
v 0.176684 0.009200 0.942164
v 0.176684 0.009200 -0.942164
v -0.647766 0.009200 0.942164
v 0.000000 0.000000 -0.942164
v -0.647766 0.009200 -0.942164
v 0.000000 0.000000 0.942164
v -0.656966 0.583366 0.942164
v -0.656966 0.583366 -0.942164
v 0.000000 0.877764 -0.942164
v 0.000000 0.877764 0.942164
v -0.452682 0.767365 -0.942164
v -0.452682 0.767365 0.942164
v -0.176684 0.009200 0.942164
v -0.176684 0.009200 -0.942164
vt 0.500000 0.437500
vt 0.625000 0.437500
vt 0.625000 0.500000
vt 0.500000 0.500000
vt 0.625000 0.750000
vt 0.500000 0.750000
vt 0.687500 0.500000
vt 0.750000 0.500000
vt 0.750000 0.750000
vt 0.687500 0.750000
vt 0.500000 0.812500
vt 0.562500 0.812500
vt 0.500000 0.375000
vt 0.625000 0.812500
vt 0.625000 0.875000
vt 0.500000 0.875000
vt 0.625000 0.375000
vt 0.500000 0.437500
vt 0.500000 0.500000
vt 0.625000 0.500000
vt 0.625000 0.437500
vt 0.500000 0.750000
vt 0.625000 0.750000
vt 0.687500 0.500000
vt 0.687500 0.750000
vt 0.500000 0.812500
vt 0.625000 0.812500
vn -0.0000 0.0000 -1.0000
vn 0.9999 -0.0160 0.0000
vn 0.2369 0.9715 0.0000
vn 0.0142 -0.9999 -0.0000
vn 0.0000 0.0000 1.0000
vn 0.6693 0.7430 0.0000
vn -0.9999 -0.0160 0.0000
vn 1.0000 0.0000 0.0000
vn -0.2369 0.9715 0.0000
vn -0.0142 -0.9999 -0.0000
vn -0.6693 0.7430 0.0000
usemtl snakewhite.002
s off
f 8/1/1 5/2/1 4/3/1 2/4/1
f 2/4/2 4/3/2 3/5/2 1/6/2
f 5/7/3 15/8/3 16/9/3 6/10/3
f 8/1/4 2/4/4 1/6/4 7/11/4 12/12/4 10/13/4
f 7/11/5 6/14/5 16/15/5 12/16/5
f 1/6/5 3/5/5 6/14/5 7/11/5
f 4/3/6 5/7/6 6/10/6 3/5/6
f 10/13/1 15/17/1 5/2/1 8/1/1
f 20/18/1 11/19/1 14/20/1 17/21/1
f 11/19/7 9/22/7 13/23/7 14/20/7
f 12/12/8 10/13/8 15/17/8 16/9/8
f 17/24/9 18/25/9 16/9/9 15/8/9
f 20/18/10 10/13/10 12/12/10 19/26/10 9/22/10 11/19/10
f 19/26/5 12/16/5 16/15/5 18/27/5
f 9/22/5 19/26/5 18/27/5 13/23/5
f 14/20/11 13/23/11 18/25/11 17/24/11
f 10/13/1 20/18/1 17/21/1 15/17/1
