# Blender v2.91.2 OBJ File: 'snake_tail.blend'
# www.blender.org
mtllib snake_tail.mtl
o Cube.052_Cube.071
v 0.487150 0.353675 -0.356255
v 0.616772 0.610011 -0.975588
v 0.650099 0.000000 -0.975588
v 0.486087 0.006306 -0.319942
v 0.435576 0.708049 -1.000000
v 0.273198 0.000000 0.397844
v 0.253346 0.318893 0.326673
v 0.444081 0.000000 -1.000000
v 0.379337 0.580512 -0.461797
v 0.000000 0.000000 -1.000000
v 0.000000 0.000000 1.000000
v 0.000000 0.076709 0.972885
v -0.487150 0.353675 -0.356255
v 0.000000 0.857598 -1.000000
v -0.616772 0.610011 -0.975588
v 0.000000 0.408723 0.134065
v -0.650099 0.000000 -0.975588
v -0.486087 0.006306 -0.319942
v -0.435576 0.708049 -1.000000
v -0.273198 0.000000 0.397844
v -0.253346 0.318893 0.326673
v -0.444081 0.000000 -1.000000
v -0.379337 0.580512 -0.461797
v 0.000000 0.734016 -0.687775
vt 0.500000 0.430510
vt 0.625000 0.430510
vt 0.625000 0.500000
vt 0.500000 0.500000
vt 0.625000 0.750000
vt 0.500000 0.750000
vt 0.694490 0.750000
vt 0.750000 0.643706
vt 0.750000 0.750000
vt 0.694490 0.500000
vt 0.750000 0.500000
vt 0.750000 0.539565
vt 0.694490 0.599849
vt 0.500000 0.541530
vt 0.500000 0.375000
vt 0.500000 0.375000
vt 0.500000 0.819490
vt 0.625000 0.819490
vt 0.625000 0.875000
vt 0.500000 0.875000
vt 0.625000 0.375000
vt 0.500000 0.430510
vt 0.500000 0.500000
vt 0.625000 0.500000
vt 0.625000 0.430510
vt 0.500000 0.750000
vt 0.625000 0.750000
vt 0.694490 0.750000
vt 0.694490 0.500000
vt 0.694490 0.599849
vt 0.500000 0.541530
vt 0.500000 0.819490
vt 0.625000 0.819490
vt 0.644782 0.434347
vt 0.696853 0.590560
vn 0.1261 0.0040 -0.9920
vn 0.9718 0.0415 0.2320
vn 0.0498 0.9287 0.3676
vn 0.2622 0.9207 0.2892
vn 0.0000 -1.0000 0.0000
vn 0.9009 0.1467 0.4085
vn 0.9493 0.0760 0.3050
vn 0.0276 -0.9996 0.0076
vn 0.6343 0.6976 0.3332
vn 0.0000 0.0000 -1.0000
vn 0.1267 0.9287 0.3484
vn 0.7998 0.5198 0.3003
vn -0.1261 0.0040 -0.9920
vn -0.9718 0.0415 0.2320
vn -0.0498 0.9287 0.3676
vn -0.2622 0.9207 0.2892
vn -0.9009 0.1467 0.4085
vn 1.0000 0.0000 0.0000
vn -0.9493 0.0760 0.3050
vn -0.0276 -0.9996 0.0076
vn -0.6343 0.6976 0.3332
vn -0.1267 0.9287 0.3484
vn -0.7998 0.5198 0.3003
usemtl snakewhite.003
s off
f 8/1/1 5/2/1 2/3/1 3/4/1
f 3/4/2 2/3/2 1/5/2 4/6/2
f 7/7/3 16/8/3 12/9/3
f 5/10/4 14/11/4 24/12/4 9/13/4
f 6/14/5 11/15/5 10/16/5 8/1/5
f 6/17/6 7/18/6 12/19/6 11/20/6
f 4/6/7 1/5/7 7/18/7 6/17/7
f 4/6/8 6/14/8 8/1/8 3/4/8
f 2/3/9 5/10/9 9/13/9 1/5/9
f 10/16/10 14/21/10 5/2/10 8/1/10
f 9/13/11 24/12/11 16/8/11 7/7/11
f 1/5/12 9/13/12 7/7/12
f 22/22/13 17/23/13 15/24/13 19/25/13
f 17/23/14 18/26/14 13/27/14 15/24/14
f 21/28/15 12/9/15 16/8/15
f 19/29/16 23/30/16 24/12/16 14/11/16
f 20/31/5 22/22/5 10/16/5 11/15/5
f 20/32/17 11/20/17 12/19/17 21/33/17
f 11/20/18 10/16/18 14/21/18 24/34/18 16/35/18 12/9/18
f 18/26/19 20/32/19 21/33/19 13/27/19
f 18/26/20 17/23/20 22/22/20 20/31/20
f 15/24/21 13/27/21 23/30/21 19/29/21
f 10/16/10 22/22/10 19/25/10 14/21/10
f 23/30/22 21/28/22 16/8/22 24/12/22
f 13/27/23 21/28/23 23/30/23
